<svg xmlns="http://www.w3.org/2000/svg" viewBox="0 0 40 40"><style>.prefix__st0{display:none}.prefix__st919{fill:#474747}</style><g id="prefix__底板"><path d="M34.12 37.13h-31c-1.66 0-3-1.34-3-3v-31c0-1.66 1.34-3 3-3h31c1.66 0 3 1.34 3 3v31c0 1.66-1.34 3-3 3z" fill="#fff"/><path class="prefix__st919" d="M34.12 37.26h-31C1.4 37.26 0 35.85 0 34.13v-31C0 1.41 1.4 0 3.12 0h31c1.72 0 3.12 1.4 3.12 3.12v31a3.122 3.122 0 01-3.12 3.14zM3.12.25A2.88 2.88 0 00.24 3.13v31a2.88 2.88 0 002.88 2.88h31A2.88 2.88 0 0037 34.13v-31A2.88 2.88 0 0034.12.25h-31z"/><path class="prefix__st919" d="M12.41 6.27l1.45 5.48 4.6 1.66-4.58 1.71-1.38 5.5-1.45-5.48-4.61-1.66 4.59-1.71 1.38-5.5zm9.6 1.59l1.8 3.63 3.47.5-2.97 1.86-.18 4.05-1.8-3.63-3.47-.5 2.97-1.86.18-4.05zm-9.07 13.06l.81 2.3 2.03.55-1.91.89-.4 2.41-.81-2.3-2.04-.55 1.91-.89.41-2.41zm3.21-1.35l2.71-2.71c.58-.58 1.54-.58 2.12 0l4.1 4.1-4.84 4.84-4.1-4.1c-.58-.59-.58-1.54.01-2.13zm9.88 2.33l-4.84 4.84 4.16 4.16c.58.58 1.54.58 2.12 0l2.71-2.71c.58-.58.58-1.54 0-2.12l-4.15-4.17zm-9.32-1.06l3.42 3.42 3.42-3.42-3.42-3.42-3.42 3.42zm0 0"/></g></svg>