<svg xmlns="http://www.w3.org/2000/svg" viewBox="0 0 80.44 80.44"><style>.prefix__st984{display:none}</style><g id="prefix__底板"><circle cx="40.22" cy="40.22" r="40.22" fill="#999999"/><path d="M60.2 60H35.62c.25-.16.48-.33.7-.54l5.7-5.7a3.742 3.742 0 003.98-.87l14.67-14.67a3.76 3.76 0 001.11-2.68c0-1.01-.39-1.96-1.11-2.68L46.4 18.59a3.79 3.79 0 00-5.36 0L26.37 33.26c-1.08 1.08-1.36 2.64-.87 3.99l-5.7 5.7c-1.48 1.48-1.53 3.83-.11 5.25l11.37 11.37c.16.16.34.31.53.43h-11.4c-.82 0-1.48.66-1.48 1.48s.66 1.48 1.48 1.48h40c.82 0 1.48-.66 1.48-1.48.01-.82-.65-1.48-1.47-1.48zM28.46 35.35l14.67-14.67c.16-.16.38-.24.59-.24s.43.08.59.24l14.27 14.27c.16.16.24.37.24.59 0 .22-.09.43-.24.59L43.91 50.8c-.31.31-.86.32-1.18 0L28.46 36.53a.824.824 0 01-.24-.59c0-.22.08-.43.24-.59zM21.78 46.1c-.26-.26-.21-.75.11-1.07l5.44-5.45 12.33 12.33-5.44 5.44c-.17.17-.39.27-.61.28a.548.548 0 01-.46-.17L21.78 46.1z" fill="#fff"/></g></svg>