<svg xmlns="http://www.w3.org/2000/svg" viewBox="0 0 23 23"><style>.prefix__st984{display:none}</style><g id="prefix__底板"><path d="M20 23H3c-1.66 0-3-1.34-3-3V3c0-1.66 1.34-3 3-3h17c1.66 0 3 1.34 3 3v17c0 1.66-1.34 3-3 3z" fill="#0073ff"/><path d="M13.11 4.33H13c-2.82 0-4.94 2.02-4.94 4.69V16.71l-1.88-1.9a.562.562 0 00-.81 0c-.23.22-.23.59 0 .81l2.84 2.87c.11.11.26.17.41.17.15 0 .29-.06.4-.17l2.86-2.85a.58.58 0 000-.81.57.57 0 00-.81 0L9.2 16.68V9.02C9.2 7 10.84 5.48 13 5.48h.11c2.09 0 3.55 1.46 3.55 3.54v9.08a.57.57 0 101.14 0V9.02c.01-2.72-1.97-4.69-4.69-4.69z" fill="#fff"/></g></svg>