<svg xmlns="http://www.w3.org/2000/svg" viewBox="0 0 30 30"><style>.prefix__st0{display:none}</style><g id="prefix__底板"><linearGradient id="prefix__SVGID_1_" gradientUnits="userSpaceOnUse" x1=".045" y1="11.348" x2="18.154" y2="11.348"><stop offset="0" stop-color="#0575d8"/><stop offset=".024" stop-color="#0579dc"/><stop offset=".186" stop-color="#078def"/><stop offset=".346" stop-color="#089afb"/><stop offset=".5" stop-color="#089eff"/><stop offset=".654" stop-color="#089afb"/><stop offset=".814" stop-color="#078def"/><stop offset=".976" stop-color="#0579dc"/><stop offset="1" stop-color="#0575d8"/></linearGradient><path d="M9.11.03c.29.23.54.48.87.67 1.83 1.04 5.41 1.52 8.17 1.27 0 2.88-.05 7.26-.05 10.14 0 1.18.2 3.1-.16 3.97-.79 1.92-2.89 3.44-4.53 4.58-.91.63-1.87 1.17-2.98 1.62-.36.14-.94.46-1.45.37-2.44-.42-5.98-3.01-7.3-4.62-.54-.66-1.2-1.26-1.48-2.17-.27-.89-.09-2.87-.09-3.97 0-2.8-.06-7.11-.06-9.91 2.97.28 7.82-.31 9.06-1.95zM1.34 3.26c.01 3.46-.01 8.83 0 12.29.47 1.46 2.84 3.12 4.06 3.97.77.54 3.42 1.71 3.81 1.63 1.96-.43 5.08-2.63 6.29-3.82.53-.52 1.18-1.03 1.36-1.77V3.26c-3 .04-5.82-.38-7.75-1.36C7.63 3 4 3.26 1.34 3.26zm12.84 3.56c.58.11 1.04.65.61 1.22-1.62 1.59-3.24 3.17-4.86 4.76-.31.3-1.2 1.48-1.81 1.34-.44-.1-.75-.58-1.03-.85l-2.21-2.15c-.24-.23-.65-.69-.35-1.16.18-.29.7-.48 1.08-.23.88.87 1.77 1.74 2.65 2.61 1.83-1.8 3.66-3.61 5.49-5.41.15-.03.29-.08.43-.13zm0 0" fill="url(#prefix__SVGID_1_)"/></g></svg>