<svg xmlns="http://www.w3.org/2000/svg" viewBox="0 0 38 38"><style>.prefix__st904{fill:#474747}.prefix__st973{display:none}</style><g id="prefix__底板"><path d="M34.12 37.12h-31c-1.66 0-3-1.34-3-3v-31c0-1.66 1.34-3 3-3h31c1.66 0 3 1.34 3 3v31c0 1.66-1.34 3-3 3z" fill="#fff" stroke="#474747" stroke-width=".25" stroke-miterlimit="10"/><path class="prefix__st904" d="M10.37 6.62h8.45c-.02.13-.06.26-.06.39v9.17c0 .12.03.24.07.51.7-.96 1.32-1.81 1.97-2.71.63.9 1.23 1.75 1.93 2.75.02-.39.04-.6.04-.81V7.28c0-.22-.04-.44-.06-.66h5.1c1.02.43 1.75 1.15 2.03 2.23.14.58.24 1.19.24 1.78.02 3.38.01 6.75.01 10.13 0 .15-.02.3-.04.5h-.83c-5.77-.01-11.54-.02-17.31-.06-1.05-.01-1.84.42-2.41 1.21-1.09 1.51-1.28 3.18-.61 4.9.67 1.71 1.62 2.31 3.43 2.31h16.57c.29 0 .59.02.86.1.13.04.31.25.29.37-.02.16-.17.35-.31.44-.14.08-.34.08-.52.08-6.24 0-12.48.01-18.72 0-1.52 0-2.45-.66-2.98-2.04-.12-.31-.2-.64-.25-.97-.07-.51-.14-1.02-.14-1.53.02-5.32.01-10.65.04-15.97.01-1.84.86-2.82 2.65-3.29.19-.05.38-.13.56-.19z"/><path class="prefix__st904" d="M29.98 23.02c-1.42 1.66-1.17 3.27.04 4.92-.31.02-.52.04-.73.04h-16.9c-1.25 0-1.85-.48-2.17-1.73-.33-1.31.07-2.57 1.01-3.07.23-.12.51-.2.76-.2 5.9-.01 11.8-.01 17.7-.01.08 0 .14.02.29.05z"/></g></svg>