<svg xmlns="http://www.w3.org/2000/svg" viewBox="0 0 38 38"><style>.prefix__st966{display:none}</style><g id="prefix__底板"><path d="M34.12 37.12h-31c-1.66 0-3-1.34-3-3v-31c0-1.66 1.34-3 3-3h31c1.66 0 3 1.34 3 3v31c0 1.66-1.34 3-3 3z" fill="#fff" stroke="#474747" stroke-width=".25" stroke-miterlimit="10"/><path d="M30.46 13.36V9.41c0-1.45-1.18-2.63-2.63-2.63h-3.95v.66H13.36v-.66H9.41c-1.45 0-2.63 1.18-2.63 2.63v3.95h.66v10.53h-.66v3.95c0 1.45 1.18 2.63 2.63 2.63h3.95v-.67h10.53v.66h3.95c1.45 0 2.63-1.18 2.63-2.63v-3.95h-.67V13.36h.66zm-1.97 10.52h-.66v2.63c0 .72-.59 1.32-1.32 1.32h-2.63v.66H13.36v-.66h-2.63c-.72 0-1.32-.59-1.32-1.32v-2.63h-.66V13.36h.66v-2.63c0-.72.59-1.32 1.32-1.32h2.63v-.66h10.53v.66h2.63c.72 0 1.32.59 1.32 1.32v2.63h.66v10.52z" fill="#474747"/></g></svg>