<svg xmlns="http://www.w3.org/2000/svg" viewBox="0 0 38 38"><style>.prefix__st907,.prefix__st968{fill:none;stroke:#474747;stroke-width:2;stroke-linecap:round;stroke-linejoin:round;stroke-miterlimit:10}.prefix__st968{stroke-width:1.5}.prefix__st969{display:none}</style><g id="prefix__底板"><path d="M34.25 37.24h-31c-1.66 0-3-1.34-3-3v-31c0-1.66 1.34-3 3-3h31c1.66 0 3 1.34 3 3v31c0 1.66-1.35 3-3 3z" fill="#fff"/><path d="M34.24 37.37h-31c-1.72 0-3.12-1.4-3.12-3.12v-31C.12 1.53 1.52.13 3.24.13h31c1.72 0 3.12 1.4 3.12 3.12v31a3.111 3.111 0 01-3.12 3.12zm-31-37A2.88 2.88 0 00.36 3.25v31a2.88 2.88 0 002.88 2.88h31a2.88 2.88 0 002.88-2.88v-31A2.88 2.88 0 0034.24.37h-31z" fill="#474747"/><g><path fill="none" stroke="#474747" stroke-width="2" stroke-linejoin="round" stroke-miterlimit="10" d="M9.3 8.74h22"/><path class="prefix__st907" d="M20.3 28.75V8.74M9.3 11.74v-3M31.3 11.74v-3"/><g><path fill="none" stroke="#474747" stroke-width="1.5" stroke-linejoin="round" stroke-miterlimit="10" d="M6.19 18.52h9.8"/><path class="prefix__st968" d="M11.09 28.75V18.52M6.19 19.86v-1.34M15.99 19.86v-1.34"/></g></g></g></svg>