<svg xmlns="http://www.w3.org/2000/svg" viewBox="0 0 40 40"><style>.prefix__st0{display:none}.prefix__st919{fill:#474747}</style><g id="prefix__底板"><path class="prefix__st919" d="M34.12 37.74h-31C1.4 37.74 0 36.34 0 34.61V3.13C0 1.41 1.4 0 3.12 0h31c1.72 0 3.12 1.4 3.12 3.12V34.6a3.116 3.116 0 01-3.12 3.14zM3.12.25A2.88 2.88 0 00.24 3.13v31.48a2.88 2.88 0 002.88 2.88h31A2.88 2.88 0 0037 34.61V3.13A2.88 2.88 0 0034.12.25h-31z"/><path class="prefix__st919" d="M8.67 17.64c3.78.01 7.57.01 11.35.01h8.56v8.36C25.17 26 21.75 26 18.34 26H8.68v-2.9c0-1.79.01-3.63-.01-5.46m21.92-2.03c-.27.01-.54.03-.81.03h-9.75c-4.18 0-8.36 0-12.54-.01h-.01c-.6 0-.81.12-.81.72.03 3.29.01 6.59.02 9.88C6.68 27.64 7.07 28 8.6 28h9.74c3.42 0 6.83 0 10.25.01h.02c.95 0 1.69-.19 1.98-1.13V15.61z"/><path d="M30.59 14.19c-.23.01-.46.03-.69.03H7.61c-.93 0-.93 0-.93-.9 0-1.3-.01-2.6 0-3.9.01-1.15.55-1.67 1.7-1.67 2.12 0 4.25.01 6.37-.01.51 0 .92.11 1.28.48.75.79 1.53 1.55 2.27 2.34.34.36.7.5 1.2.5 3.02-.02 6.04.03 9.05-.03 1.02-.02 1.66.31 2.02 1.21.02.65.02 1.3.02 1.95z" fill="#666"/></g></svg>