<svg xmlns="http://www.w3.org/2000/svg" viewBox="0 0 30 30"><style>.prefix__st0{display:none}</style><g id="prefix__底板"><linearGradient id="prefix__SVGID_1_" gradientUnits="userSpaceOnUse" x1=".045" y1="13.2" x2="18.154" y2="13.2"><stop offset="0" stop-color="#0575d8"/><stop offset=".024" stop-color="#0579dc"/><stop offset=".186" stop-color="#078def"/><stop offset=".346" stop-color="#089afb"/><stop offset=".5" stop-color="#089eff"/><stop offset=".654" stop-color="#089afb"/><stop offset=".814" stop-color="#078def"/><stop offset=".976" stop-color="#0579dc"/><stop offset="1" stop-color="#0575d8"/></linearGradient><path d="M9.25 24.56c.72 0 1.3-.59 1.3-1.33 0-.72-.59-1.3-1.3-1.3-.72 0-1.33.59-1.33 1.3.03.74.61 1.33 1.33 1.33zM15.47.03H2.73C1.24.03.05 1.2.05 2.66v21.07c0 1.46 1.19 2.63 2.68 2.63h12.74c1.49 0 2.68-1.17 2.68-2.63V2.66c0-1.46-1.19-2.63-2.68-2.63zM3 25.05c-.72 0-1.3-.59-1.3-1.33v-3.11h14.82v3.11c-.03.72-.29 1.33-1.01 1.33H3zm13.51-6.27H1.69V2.98c0-.72.57-1.3 1.27-1.3h12.22c.7 0 1.27.59 1.27 1.3v15.8h.06zm0 0" fill="url(#prefix__SVGID_1_)"/></g></svg>