<svg xmlns="http://www.w3.org/2000/svg" viewBox="0 0 595 400"><style>.prefix__st0{display:none}.prefix__st894{fill:#cce3ff}</style><g id="prefix__底板"><circle class="prefix__st894" cx="8.98" cy="15.98" r="1.98"/><circle class="prefix__st894" cx="30.41" cy="15.98" r="1.98"/><circle class="prefix__st894" cx="51.83" cy="15.98" r="1.98"/><circle class="prefix__st894" cx="73.26" cy="15.98" r="1.98"/><circle class="prefix__st894" cx="94.68" cy="15.98" r="1.98"/><circle class="prefix__st894" cx="116.11" cy="15.98" r="1.98"/><circle class="prefix__st894" cx="137.53" cy="15.98" r="1.98"/><circle class="prefix__st894" cx="158.95" cy="15.98" r="1.98"/><circle class="prefix__st894" cx="180.38" cy="15.98" r="1.98"/><circle class="prefix__st894" cx="201.8" cy="15.98" r="1.98"/><circle class="prefix__st894" cx="223.23" cy="15.98" r="1.98"/><circle class="prefix__st894" cx="244.65" cy="15.98" r="1.98"/><circle class="prefix__st894" cx="266.08" cy="15.98" r="1.98"/><circle class="prefix__st894" cx="287.5" cy="15.98" r="1.98"/><circle class="prefix__st894" cx="308.93" cy="15.98" r="1.98"/><circle class="prefix__st894" cx="330.35" cy="15.98" r="1.98"/><circle class="prefix__st894" cx="351.78" cy="15.98" r="1.98"/><circle class="prefix__st894" cx="373.2" cy="15.98" r="1.98"/><circle class="prefix__st894" cx="394.62" cy="15.98" r="1.98"/><circle class="prefix__st894" cx="416.05" cy="15.98" r="1.98"/><circle class="prefix__st894" cx="437.47" cy="15.98" r="1.98"/><circle class="prefix__st894" cx="458.9" cy="15.98" r="1.98"/><circle class="prefix__st894" cx="480.32" cy="15.98" r="1.98"/><circle class="prefix__st894" cx="501.75" cy="15.98" r="1.98"/><circle class="prefix__st894" cx="523.17" cy="15.98" r="1.98"/><circle class="prefix__st894" cx="544.6" cy="15.98" r="1.98"/><circle class="prefix__st894" cx="566.02" cy="15.98" r="1.98"/><circle class="prefix__st894" cx="587.44" cy="15.98" r="1.98"/><circle class="prefix__st894" cx="8.98" cy="36.61" r="1.98"/><circle class="prefix__st894" cx="30.41" cy="36.61" r="1.98"/><circle class="prefix__st894" cx="51.83" cy="36.61" r="1.98"/><circle class="prefix__st894" cx="73.26" cy="36.61" r="1.98"/><circle class="prefix__st894" cx="94.68" cy="36.61" r="1.98"/><circle class="prefix__st894" cx="116.11" cy="36.61" r="1.98"/><circle class="prefix__st894" cx="137.53" cy="36.61" r="1.98"/><circle class="prefix__st894" cx="158.95" cy="36.61" r="1.98"/><circle class="prefix__st894" cx="180.38" cy="36.61" r="1.98"/><circle class="prefix__st894" cx="201.8" cy="36.61" r="1.98"/><circle class="prefix__st894" cx="223.23" cy="36.61" r="1.98"/><circle class="prefix__st894" cx="244.65" cy="36.61" r="1.98"/><circle class="prefix__st894" cx="266.08" cy="36.61" r="1.98"/><circle class="prefix__st894" cx="287.5" cy="36.61" r="1.98"/><circle class="prefix__st894" cx="308.93" cy="36.61" r="1.98"/><circle class="prefix__st894" cx="330.35" cy="36.61" r="1.98"/><circle class="prefix__st894" cx="351.78" cy="36.61" r="1.98"/><circle class="prefix__st894" cx="373.2" cy="36.61" r="1.98"/><circle class="prefix__st894" cx="394.62" cy="36.61" r="1.98"/><circle class="prefix__st894" cx="416.05" cy="36.61" r="1.98"/><circle class="prefix__st894" cx="437.47" cy="36.61" r="1.98"/><circle class="prefix__st894" cx="458.9" cy="36.61" r="1.98"/><circle class="prefix__st894" cx="480.32" cy="36.61" r="1.98"/><circle class="prefix__st894" cx="501.75" cy="36.61" r="1.98"/><circle class="prefix__st894" cx="523.17" cy="36.61" r="1.98"/><circle class="prefix__st894" cx="544.6" cy="36.61" r="1.98"/><circle class="prefix__st894" cx="566.02" cy="36.61" r="1.98"/><circle class="prefix__st894" cx="587.44" cy="36.61" r="1.98"/><circle class="prefix__st894" cx="8.98" cy="57.25" r="1.98"/><circle class="prefix__st894" cx="30.41" cy="57.25" r="1.98"/><circle class="prefix__st894" cx="51.83" cy="57.25" r="1.98"/><circle class="prefix__st894" cx="73.26" cy="57.25" r="1.98"/><circle class="prefix__st894" cx="94.68" cy="57.25" r="1.98"/><circle class="prefix__st894" cx="116.11" cy="57.25" r="1.98"/><circle class="prefix__st894" cx="137.53" cy="57.25" r="1.98"/><circle class="prefix__st894" cx="158.95" cy="57.25" r="1.98"/><circle class="prefix__st894" cx="180.38" cy="57.25" r="1.98"/><circle class="prefix__st894" cx="201.8" cy="57.25" r="1.98"/><circle class="prefix__st894" cx="223.23" cy="57.25" r="1.98"/><circle class="prefix__st894" cx="244.65" cy="57.25" r="1.98"/><circle class="prefix__st894" cx="266.08" cy="57.25" r="1.98"/><circle class="prefix__st894" cx="287.5" cy="57.25" r="1.98"/><circle class="prefix__st894" cx="308.93" cy="57.25" r="1.98"/><circle class="prefix__st894" cx="330.35" cy="57.25" r="1.98"/><circle class="prefix__st894" cx="351.78" cy="57.25" r="1.98"/><circle class="prefix__st894" cx="373.2" cy="57.25" r="1.98"/><circle class="prefix__st894" cx="394.62" cy="57.25" r="1.98"/><circle class="prefix__st894" cx="416.05" cy="57.25" r="1.98"/><circle class="prefix__st894" cx="437.47" cy="57.25" r="1.98"/><circle class="prefix__st894" cx="458.9" cy="57.25" r="1.98"/><circle class="prefix__st894" cx="480.32" cy="57.25" r="1.98"/><circle class="prefix__st894" cx="501.75" cy="57.25" r="1.98"/><circle class="prefix__st894" cx="523.17" cy="57.25" r="1.98"/><circle class="prefix__st894" cx="544.6" cy="57.25" r="1.98"/><circle class="prefix__st894" cx="566.02" cy="57.25" r="1.98"/><circle class="prefix__st894" cx="587.44" cy="57.25" r="1.98"/><circle class="prefix__st894" cx="8.98" cy="77.88" r="1.98"/><circle class="prefix__st894" cx="30.41" cy="77.88" r="1.98"/><circle class="prefix__st894" cx="51.83" cy="77.88" r="1.98"/><circle class="prefix__st894" cx="73.26" cy="77.88" r="1.98"/><circle class="prefix__st894" cx="94.68" cy="77.88" r="1.98"/><circle class="prefix__st894" cx="116.11" cy="77.88" r="1.98"/><circle class="prefix__st894" cx="137.53" cy="77.88" r="1.98"/><circle class="prefix__st894" cx="158.95" cy="77.88" r="1.98"/><circle class="prefix__st894" cx="180.38" cy="77.88" r="1.98"/><circle class="prefix__st894" cx="201.8" cy="77.88" r="1.98"/><circle class="prefix__st894" cx="223.23" cy="77.88" r="1.98"/><circle class="prefix__st894" cx="244.65" cy="77.88" r="1.98"/><circle class="prefix__st894" cx="266.08" cy="77.88" r="1.98"/><circle class="prefix__st894" cx="287.5" cy="77.88" r="1.98"/><circle class="prefix__st894" cx="308.93" cy="77.88" r="1.98"/><circle class="prefix__st894" cx="330.35" cy="77.88" r="1.98"/><circle class="prefix__st894" cx="351.78" cy="77.88" r="1.98"/><circle class="prefix__st894" cx="373.2" cy="77.88" r="1.98"/><circle class="prefix__st894" cx="394.62" cy="77.88" r="1.98"/><circle class="prefix__st894" cx="416.05" cy="77.88" r="1.98"/><circle class="prefix__st894" cx="437.47" cy="77.88" r="1.98"/><circle class="prefix__st894" cx="458.9" cy="77.88" r="1.98"/><circle class="prefix__st894" cx="480.32" cy="77.88" r="1.98"/><circle class="prefix__st894" cx="501.75" cy="77.88" r="1.98"/><circle class="prefix__st894" cx="523.17" cy="77.88" r="1.98"/><circle class="prefix__st894" cx="544.6" cy="77.88" r="1.98"/><circle class="prefix__st894" cx="566.02" cy="77.88" r="1.98"/><circle class="prefix__st894" cx="587.44" cy="77.88" r="1.98"/><circle class="prefix__st894" cx="8.98" cy="98.51" r="1.98"/><circle class="prefix__st894" cx="30.41" cy="98.51" r="1.98"/><circle class="prefix__st894" cx="51.83" cy="98.51" r="1.98"/><circle class="prefix__st894" cx="73.26" cy="98.51" r="1.98"/><circle class="prefix__st894" cx="94.68" cy="98.51" r="1.98"/><circle class="prefix__st894" cx="116.11" cy="98.51" r="1.98"/><circle class="prefix__st894" cx="137.53" cy="98.51" r="1.98"/><circle class="prefix__st894" cx="158.95" cy="98.51" r="1.98"/><circle class="prefix__st894" cx="180.38" cy="98.51" r="1.98"/><circle class="prefix__st894" cx="201.8" cy="98.51" r="1.98"/><circle class="prefix__st894" cx="223.23" cy="98.51" r="1.98"/><circle class="prefix__st894" cx="244.65" cy="98.51" r="1.98"/><circle class="prefix__st894" cx="266.08" cy="98.51" r="1.98"/><circle class="prefix__st894" cx="287.5" cy="98.51" r="1.98"/><circle class="prefix__st894" cx="308.93" cy="98.51" r="1.98"/><circle class="prefix__st894" cx="330.35" cy="98.51" r="1.98"/><circle class="prefix__st894" cx="351.78" cy="98.51" r="1.98"/><circle class="prefix__st894" cx="373.2" cy="98.51" r="1.98"/><circle class="prefix__st894" cx="394.62" cy="98.51" r="1.98"/><circle class="prefix__st894" cx="416.05" cy="98.51" r="1.98"/><circle class="prefix__st894" cx="437.47" cy="98.51" r="1.98"/><circle class="prefix__st894" cx="458.9" cy="98.51" r="1.98"/><circle class="prefix__st894" cx="480.32" cy="98.51" r="1.98"/><circle class="prefix__st894" cx="501.75" cy="98.51" r="1.98"/><circle class="prefix__st894" cx="523.17" cy="98.51" r="1.98"/><circle class="prefix__st894" cx="544.6" cy="98.51" r="1.98"/><circle class="prefix__st894" cx="566.02" cy="98.51" r="1.98"/><circle class="prefix__st894" cx="587.44" cy="98.51" r="1.98"/><circle class="prefix__st894" cx="8.98" cy="119.14" r="1.98"/><circle class="prefix__st894" cx="30.41" cy="119.14" r="1.98"/><circle class="prefix__st894" cx="51.83" cy="119.14" r="1.98"/><circle class="prefix__st894" cx="73.26" cy="119.14" r="1.98"/><circle class="prefix__st894" cx="94.68" cy="119.14" r="1.98"/><circle class="prefix__st894" cx="116.11" cy="119.14" r="1.98"/><circle class="prefix__st894" cx="137.53" cy="119.14" r="1.98"/><circle class="prefix__st894" cx="158.95" cy="119.14" r="1.98"/><circle class="prefix__st894" cx="180.38" cy="119.14" r="1.98"/><circle class="prefix__st894" cx="201.8" cy="119.14" r="1.98"/><circle class="prefix__st894" cx="223.23" cy="119.14" r="1.98"/><circle class="prefix__st894" cx="244.65" cy="119.14" r="1.98"/><circle class="prefix__st894" cx="266.08" cy="119.14" r="1.98"/><circle class="prefix__st894" cx="287.5" cy="119.14" r="1.98"/><circle class="prefix__st894" cx="308.93" cy="119.14" r="1.98"/><circle class="prefix__st894" cx="330.35" cy="119.14" r="1.98"/><circle class="prefix__st894" cx="351.78" cy="119.14" r="1.98"/><circle class="prefix__st894" cx="373.2" cy="119.14" r="1.98"/><circle class="prefix__st894" cx="394.62" cy="119.14" r="1.98"/><circle class="prefix__st894" cx="416.05" cy="119.14" r="1.98"/><circle class="prefix__st894" cx="437.47" cy="119.14" r="1.98"/><circle class="prefix__st894" cx="458.9" cy="119.14" r="1.98"/><circle class="prefix__st894" cx="480.32" cy="119.14" r="1.98"/><circle class="prefix__st894" cx="501.75" cy="119.14" r="1.98"/><circle class="prefix__st894" cx="523.17" cy="119.14" r="1.98"/><circle class="prefix__st894" cx="544.6" cy="119.14" r="1.98"/><circle class="prefix__st894" cx="566.02" cy="119.14" r="1.98"/><circle class="prefix__st894" cx="587.44" cy="119.14" r="1.98"/><circle class="prefix__st894" cx="8.98" cy="139.77" r="1.98"/><circle class="prefix__st894" cx="30.41" cy="139.77" r="1.98"/><circle class="prefix__st894" cx="51.83" cy="139.77" r="1.98"/><circle class="prefix__st894" cx="73.26" cy="139.77" r="1.98"/><circle class="prefix__st894" cx="94.68" cy="139.77" r="1.98"/><circle class="prefix__st894" cx="116.11" cy="139.77" r="1.98"/><circle class="prefix__st894" cx="137.53" cy="139.77" r="1.98"/><circle class="prefix__st894" cx="158.95" cy="139.77" r="1.98"/><circle class="prefix__st894" cx="180.38" cy="139.77" r="1.98"/><circle class="prefix__st894" cx="201.8" cy="139.77" r="1.98"/><circle class="prefix__st894" cx="223.23" cy="139.77" r="1.98"/><circle class="prefix__st894" cx="244.65" cy="139.77" r="1.98"/><circle class="prefix__st894" cx="266.08" cy="139.77" r="1.98"/><circle class="prefix__st894" cx="287.5" cy="139.77" r="1.98"/><circle class="prefix__st894" cx="308.93" cy="139.77" r="1.98"/><circle class="prefix__st894" cx="330.35" cy="139.77" r="1.98"/><circle class="prefix__st894" cx="351.78" cy="139.77" r="1.98"/><circle class="prefix__st894" cx="373.2" cy="139.77" r="1.98"/><circle class="prefix__st894" cx="394.62" cy="139.77" r="1.98"/><circle class="prefix__st894" cx="416.05" cy="139.77" r="1.98"/><circle class="prefix__st894" cx="437.47" cy="139.77" r="1.98"/><circle class="prefix__st894" cx="458.9" cy="139.77" r="1.98"/><circle class="prefix__st894" cx="480.32" cy="139.77" r="1.98"/><circle class="prefix__st894" cx="501.75" cy="139.77" r="1.98"/><circle class="prefix__st894" cx="523.17" cy="139.77" r="1.98"/><circle class="prefix__st894" cx="544.6" cy="139.77" r="1.98"/><circle class="prefix__st894" cx="566.02" cy="139.77" r="1.98"/><circle class="prefix__st894" cx="587.44" cy="139.77" r="1.98"/><circle class="prefix__st894" cx="8.98" cy="160.4" r="1.98"/><circle class="prefix__st894" cx="30.41" cy="160.4" r="1.98"/><circle class="prefix__st894" cx="51.83" cy="160.4" r="1.98"/><circle class="prefix__st894" cx="73.26" cy="160.4" r="1.98"/><circle class="prefix__st894" cx="94.68" cy="160.4" r="1.98"/><circle class="prefix__st894" cx="116.11" cy="160.4" r="1.98"/><circle class="prefix__st894" cx="137.53" cy="160.4" r="1.98"/><circle class="prefix__st894" cx="158.95" cy="160.4" r="1.98"/><circle class="prefix__st894" cx="180.38" cy="160.4" r="1.98"/><circle class="prefix__st894" cx="201.8" cy="160.4" r="1.98"/><circle class="prefix__st894" cx="223.23" cy="160.4" r="1.98"/><circle class="prefix__st894" cx="244.65" cy="160.4" r="1.98"/><circle class="prefix__st894" cx="266.08" cy="160.4" r="1.98"/><circle class="prefix__st894" cx="287.5" cy="160.4" r="1.98"/><circle class="prefix__st894" cx="308.93" cy="160.4" r="1.98"/><circle class="prefix__st894" cx="330.35" cy="160.4" r="1.98"/><circle class="prefix__st894" cx="351.78" cy="160.4" r="1.98"/><circle class="prefix__st894" cx="373.2" cy="160.4" r="1.98"/><circle class="prefix__st894" cx="394.62" cy="160.4" r="1.98"/><circle class="prefix__st894" cx="416.05" cy="160.4" r="1.98"/><circle class="prefix__st894" cx="437.47" cy="160.4" r="1.98"/><circle class="prefix__st894" cx="458.9" cy="160.4" r="1.98"/><circle class="prefix__st894" cx="480.32" cy="160.4" r="1.98"/><circle class="prefix__st894" cx="501.75" cy="160.4" r="1.98"/><circle class="prefix__st894" cx="523.17" cy="160.4" r="1.98"/><circle class="prefix__st894" cx="544.6" cy="160.4" r="1.98"/><circle class="prefix__st894" cx="566.02" cy="160.4" r="1.98"/><circle class="prefix__st894" cx="587.44" cy="160.4" r="1.98"/><circle class="prefix__st894" cx="8.98" cy="181.03" r="1.98"/><circle class="prefix__st894" cx="30.41" cy="181.03" r="1.98"/><circle class="prefix__st894" cx="51.83" cy="181.03" r="1.98"/><circle class="prefix__st894" cx="73.26" cy="181.03" r="1.98"/><circle class="prefix__st894" cx="94.68" cy="181.03" r="1.98"/><circle class="prefix__st894" cx="116.11" cy="181.03" r="1.98"/><circle class="prefix__st894" cx="137.53" cy="181.03" r="1.98"/><circle class="prefix__st894" cx="158.95" cy="181.03" r="1.98"/><circle class="prefix__st894" cx="180.38" cy="181.03" r="1.98"/><circle class="prefix__st894" cx="201.8" cy="181.03" r="1.98"/><circle class="prefix__st894" cx="223.23" cy="181.03" r="1.98"/><circle class="prefix__st894" cx="244.65" cy="181.03" r="1.98"/><circle class="prefix__st894" cx="266.08" cy="181.03" r="1.98"/><circle class="prefix__st894" cx="287.5" cy="181.03" r="1.98"/><circle class="prefix__st894" cx="308.93" cy="181.03" r="1.98"/><circle class="prefix__st894" cx="330.35" cy="181.03" r="1.98"/><circle class="prefix__st894" cx="351.78" cy="181.03" r="1.98"/><circle class="prefix__st894" cx="373.2" cy="181.03" r="1.98"/><circle class="prefix__st894" cx="394.62" cy="181.03" r="1.98"/><circle class="prefix__st894" cx="416.05" cy="181.03" r="1.98"/><circle class="prefix__st894" cx="437.47" cy="181.03" r="1.98"/><circle class="prefix__st894" cx="458.9" cy="181.03" r="1.98"/><circle class="prefix__st894" cx="480.32" cy="181.03" r="1.98"/><circle class="prefix__st894" cx="501.75" cy="181.03" r="1.98"/><circle class="prefix__st894" cx="523.17" cy="181.03" r="1.98"/><circle class="prefix__st894" cx="544.6" cy="181.03" r="1.98"/><circle class="prefix__st894" cx="566.02" cy="181.03" r="1.98"/><circle class="prefix__st894" cx="587.44" cy="181.03" r="1.98"/><circle class="prefix__st894" cx="8.98" cy="201.66" r="1.98"/><circle class="prefix__st894" cx="30.41" cy="201.66" r="1.98"/><circle class="prefix__st894" cx="51.83" cy="201.66" r="1.98"/><circle class="prefix__st894" cx="73.26" cy="201.66" r="1.98"/><circle class="prefix__st894" cx="94.68" cy="201.66" r="1.98"/><circle class="prefix__st894" cx="116.11" cy="201.66" r="1.98"/><circle class="prefix__st894" cx="137.53" cy="201.66" r="1.98"/><circle class="prefix__st894" cx="158.95" cy="201.66" r="1.98"/><circle class="prefix__st894" cx="180.38" cy="201.66" r="1.98"/><circle class="prefix__st894" cx="201.8" cy="201.66" r="1.98"/><circle class="prefix__st894" cx="223.23" cy="201.66" r="1.98"/><circle class="prefix__st894" cx="244.65" cy="201.66" r="1.98"/><circle class="prefix__st894" cx="266.08" cy="201.66" r="1.98"/><circle class="prefix__st894" cx="287.5" cy="201.66" r="1.98"/><circle class="prefix__st894" cx="308.93" cy="201.66" r="1.98"/><circle class="prefix__st894" cx="330.35" cy="201.66" r="1.98"/><circle class="prefix__st894" cx="351.78" cy="201.66" r="1.98"/><circle class="prefix__st894" cx="373.2" cy="201.66" r="1.98"/><circle class="prefix__st894" cx="394.62" cy="201.66" r="1.98"/><circle class="prefix__st894" cx="416.05" cy="201.66" r="1.98"/><circle class="prefix__st894" cx="437.47" cy="201.66" r="1.98"/><circle class="prefix__st894" cx="458.9" cy="201.66" r="1.98"/><circle class="prefix__st894" cx="480.32" cy="201.66" r="1.98"/><circle class="prefix__st894" cx="501.75" cy="201.66" r="1.98"/><circle class="prefix__st894" cx="523.17" cy="201.66" r="1.98"/><circle class="prefix__st894" cx="544.6" cy="201.66" r="1.98"/><circle class="prefix__st894" cx="566.02" cy="201.66" r="1.98"/><circle class="prefix__st894" cx="587.44" cy="201.66" r="1.98"/><circle class="prefix__st894" cx="8.98" cy="222.29" r="1.98"/><circle class="prefix__st894" cx="30.41" cy="222.29" r="1.98"/><circle class="prefix__st894" cx="51.83" cy="222.29" r="1.98"/><circle class="prefix__st894" cx="73.26" cy="222.29" r="1.98"/><circle class="prefix__st894" cx="94.68" cy="222.29" r="1.98"/><circle class="prefix__st894" cx="116.11" cy="222.29" r="1.98"/><circle class="prefix__st894" cx="137.53" cy="222.29" r="1.98"/><circle class="prefix__st894" cx="158.95" cy="222.29" r="1.98"/><circle class="prefix__st894" cx="180.38" cy="222.29" r="1.98"/><circle class="prefix__st894" cx="201.8" cy="222.29" r="1.98"/><circle class="prefix__st894" cx="223.23" cy="222.29" r="1.98"/><circle class="prefix__st894" cx="244.65" cy="222.29" r="1.98"/><circle class="prefix__st894" cx="266.08" cy="222.29" r="1.98"/><circle class="prefix__st894" cx="287.5" cy="222.29" r="1.98"/><circle class="prefix__st894" cx="308.93" cy="222.29" r="1.98"/><circle class="prefix__st894" cx="330.35" cy="222.29" r="1.98"/><circle class="prefix__st894" cx="351.78" cy="222.29" r="1.98"/><circle class="prefix__st894" cx="373.2" cy="222.29" r="1.98"/><circle class="prefix__st894" cx="394.62" cy="222.29" r="1.98"/><circle class="prefix__st894" cx="416.05" cy="222.29" r="1.98"/><circle class="prefix__st894" cx="437.47" cy="222.29" r="1.98"/><circle class="prefix__st894" cx="458.9" cy="222.29" r="1.98"/><circle class="prefix__st894" cx="480.32" cy="222.29" r="1.98"/><circle class="prefix__st894" cx="501.75" cy="222.29" r="1.98"/><circle class="prefix__st894" cx="523.17" cy="222.29" r="1.98"/><circle class="prefix__st894" cx="544.6" cy="222.29" r="1.98"/><circle class="prefix__st894" cx="566.02" cy="222.29" r="1.98"/><circle class="prefix__st894" cx="587.44" cy="222.29" r="1.98"/><circle class="prefix__st894" cx="8.98" cy="242.92" r="1.98"/><circle class="prefix__st894" cx="30.41" cy="242.92" r="1.98"/><circle class="prefix__st894" cx="51.83" cy="242.92" r="1.98"/><circle class="prefix__st894" cx="73.26" cy="242.92" r="1.98"/><circle class="prefix__st894" cx="94.68" cy="242.92" r="1.98"/><circle class="prefix__st894" cx="116.11" cy="242.92" r="1.98"/><circle class="prefix__st894" cx="137.53" cy="242.92" r="1.98"/><circle class="prefix__st894" cx="158.95" cy="242.92" r="1.98"/><circle class="prefix__st894" cx="180.38" cy="242.92" r="1.98"/><circle class="prefix__st894" cx="201.8" cy="242.92" r="1.98"/><circle class="prefix__st894" cx="223.23" cy="242.92" r="1.98"/><circle class="prefix__st894" cx="244.65" cy="242.92" r="1.98"/><circle class="prefix__st894" cx="266.08" cy="242.92" r="1.98"/><circle class="prefix__st894" cx="287.5" cy="242.92" r="1.98"/><circle class="prefix__st894" cx="308.93" cy="242.92" r="1.98"/><circle class="prefix__st894" cx="330.35" cy="242.92" r="1.98"/><circle class="prefix__st894" cx="351.78" cy="242.92" r="1.98"/><circle class="prefix__st894" cx="373.2" cy="242.92" r="1.98"/><circle class="prefix__st894" cx="394.62" cy="242.92" r="1.98"/><circle class="prefix__st894" cx="416.05" cy="242.92" r="1.98"/><circle class="prefix__st894" cx="437.47" cy="242.92" r="1.98"/><circle class="prefix__st894" cx="458.9" cy="242.92" r="1.98"/><circle class="prefix__st894" cx="480.32" cy="242.92" r="1.98"/><circle class="prefix__st894" cx="501.75" cy="242.92" r="1.98"/><circle class="prefix__st894" cx="523.17" cy="242.92" r="1.98"/><circle class="prefix__st894" cx="544.6" cy="242.92" r="1.98"/><circle class="prefix__st894" cx="566.02" cy="242.92" r="1.98"/><circle class="prefix__st894" cx="587.44" cy="242.92" r="1.98"/><circle class="prefix__st894" cx="8.98" cy="263.56" r="1.98"/><circle class="prefix__st894" cx="30.41" cy="263.56" r="1.98"/><circle class="prefix__st894" cx="51.83" cy="263.56" r="1.98"/><circle class="prefix__st894" cx="73.26" cy="263.56" r="1.98"/><circle class="prefix__st894" cx="94.68" cy="263.56" r="1.98"/><circle class="prefix__st894" cx="116.11" cy="263.56" r="1.98"/><circle class="prefix__st894" cx="137.53" cy="263.56" r="1.98"/><circle class="prefix__st894" cx="158.95" cy="263.56" r="1.98"/><circle class="prefix__st894" cx="180.38" cy="263.56" r="1.98"/><circle class="prefix__st894" cx="201.8" cy="263.56" r="1.98"/><circle class="prefix__st894" cx="223.23" cy="263.56" r="1.98"/><circle class="prefix__st894" cx="244.65" cy="263.56" r="1.98"/><circle class="prefix__st894" cx="266.08" cy="263.56" r="1.98"/><circle class="prefix__st894" cx="287.5" cy="263.56" r="1.98"/><circle class="prefix__st894" cx="308.93" cy="263.56" r="1.98"/><circle class="prefix__st894" cx="330.35" cy="263.56" r="1.98"/><circle class="prefix__st894" cx="351.78" cy="263.56" r="1.98"/><circle class="prefix__st894" cx="373.2" cy="263.56" r="1.98"/><circle class="prefix__st894" cx="394.62" cy="263.56" r="1.98"/><circle class="prefix__st894" cx="416.05" cy="263.56" r="1.98"/><circle class="prefix__st894" cx="437.47" cy="263.56" r="1.98"/><circle class="prefix__st894" cx="458.9" cy="263.56" r="1.98"/><circle class="prefix__st894" cx="480.32" cy="263.56" r="1.98"/><circle class="prefix__st894" cx="501.75" cy="263.56" r="1.98"/><circle class="prefix__st894" cx="523.17" cy="263.56" r="1.98"/><circle class="prefix__st894" cx="544.6" cy="263.56" r="1.98"/><circle class="prefix__st894" cx="566.02" cy="263.56" r="1.98"/><circle class="prefix__st894" cx="587.44" cy="263.56" r="1.98"/><circle class="prefix__st894" cx="8.98" cy="284.19" r="1.98"/><circle class="prefix__st894" cx="30.41" cy="284.19" r="1.98"/><circle class="prefix__st894" cx="51.83" cy="284.19" r="1.98"/><circle class="prefix__st894" cx="73.26" cy="284.19" r="1.98"/><circle class="prefix__st894" cx="94.68" cy="284.19" r="1.98"/><circle class="prefix__st894" cx="116.11" cy="284.19" r="1.98"/><circle class="prefix__st894" cx="137.53" cy="284.19" r="1.98"/><circle class="prefix__st894" cx="158.95" cy="284.19" r="1.98"/><circle class="prefix__st894" cx="180.38" cy="284.19" r="1.98"/><circle class="prefix__st894" cx="201.8" cy="284.19" r="1.98"/><circle class="prefix__st894" cx="223.23" cy="284.19" r="1.98"/><circle class="prefix__st894" cx="244.65" cy="284.19" r="1.98"/><circle class="prefix__st894" cx="266.08" cy="284.19" r="1.98"/><circle class="prefix__st894" cx="287.5" cy="284.19" r="1.98"/><circle class="prefix__st894" cx="308.93" cy="284.19" r="1.98"/><circle class="prefix__st894" cx="330.35" cy="284.19" r="1.98"/><circle class="prefix__st894" cx="351.78" cy="284.19" r="1.98"/><circle class="prefix__st894" cx="373.2" cy="284.19" r="1.98"/><circle class="prefix__st894" cx="394.62" cy="284.19" r="1.98"/><circle class="prefix__st894" cx="416.05" cy="284.19" r="1.98"/><circle class="prefix__st894" cx="437.47" cy="284.19" r="1.98"/><circle class="prefix__st894" cx="458.9" cy="284.19" r="1.98"/><circle class="prefix__st894" cx="480.32" cy="284.19" r="1.98"/><circle class="prefix__st894" cx="501.75" cy="284.19" r="1.98"/><circle class="prefix__st894" cx="523.17" cy="284.19" r="1.98"/><circle class="prefix__st894" cx="544.6" cy="284.19" r="1.98"/><circle class="prefix__st894" cx="566.02" cy="284.19" r="1.98"/><circle class="prefix__st894" cx="587.44" cy="284.19" r="1.98"/><circle class="prefix__st894" cx="8.98" cy="304.82" r="1.98"/><circle class="prefix__st894" cx="30.41" cy="304.82" r="1.98"/><circle class="prefix__st894" cx="51.83" cy="304.82" r="1.98"/><circle class="prefix__st894" cx="73.26" cy="304.82" r="1.98"/><circle class="prefix__st894" cx="94.68" cy="304.82" r="1.98"/><circle class="prefix__st894" cx="116.11" cy="304.82" r="1.98"/><circle class="prefix__st894" cx="137.53" cy="304.82" r="1.98"/><circle class="prefix__st894" cx="158.95" cy="304.82" r="1.98"/><circle class="prefix__st894" cx="180.38" cy="304.82" r="1.98"/><circle class="prefix__st894" cx="201.8" cy="304.82" r="1.98"/><circle class="prefix__st894" cx="223.23" cy="304.82" r="1.98"/><circle class="prefix__st894" cx="244.65" cy="304.82" r="1.98"/><circle class="prefix__st894" cx="266.08" cy="304.82" r="1.98"/><circle class="prefix__st894" cx="287.5" cy="304.82" r="1.98"/><circle class="prefix__st894" cx="308.93" cy="304.82" r="1.98"/><circle class="prefix__st894" cx="330.35" cy="304.82" r="1.98"/><circle class="prefix__st894" cx="351.78" cy="304.82" r="1.98"/><circle class="prefix__st894" cx="373.2" cy="304.82" r="1.98"/><circle class="prefix__st894" cx="394.62" cy="304.82" r="1.98"/><circle class="prefix__st894" cx="416.05" cy="304.82" r="1.98"/><circle class="prefix__st894" cx="437.47" cy="304.82" r="1.98"/><circle class="prefix__st894" cx="458.9" cy="304.82" r="1.98"/><circle class="prefix__st894" cx="480.32" cy="304.82" r="1.98"/><circle class="prefix__st894" cx="501.75" cy="304.82" r="1.98"/><circle class="prefix__st894" cx="523.17" cy="304.82" r="1.98"/><circle class="prefix__st894" cx="544.6" cy="304.82" r="1.98"/><circle class="prefix__st894" cx="566.02" cy="304.82" r="1.98"/><circle class="prefix__st894" cx="587.44" cy="304.82" r="1.98"/><circle class="prefix__st894" cx="8.98" cy="325.45" r="1.98"/><circle class="prefix__st894" cx="30.41" cy="325.45" r="1.98"/><circle class="prefix__st894" cx="51.83" cy="325.45" r="1.98"/><circle class="prefix__st894" cx="73.26" cy="325.45" r="1.98"/><circle class="prefix__st894" cx="94.68" cy="325.45" r="1.98"/><circle class="prefix__st894" cx="116.11" cy="325.45" r="1.98"/><circle class="prefix__st894" cx="137.53" cy="325.45" r="1.98"/><circle class="prefix__st894" cx="158.95" cy="325.45" r="1.98"/><circle class="prefix__st894" cx="180.38" cy="325.45" r="1.98"/><circle class="prefix__st894" cx="201.8" cy="325.45" r="1.98"/><circle class="prefix__st894" cx="223.23" cy="325.45" r="1.98"/><circle class="prefix__st894" cx="244.65" cy="325.45" r="1.98"/><circle class="prefix__st894" cx="266.08" cy="325.45" r="1.98"/><circle class="prefix__st894" cx="287.5" cy="325.45" r="1.98"/><circle class="prefix__st894" cx="308.93" cy="325.45" r="1.98"/><circle class="prefix__st894" cx="330.35" cy="325.45" r="1.98"/><circle class="prefix__st894" cx="351.78" cy="325.45" r="1.98"/><circle class="prefix__st894" cx="373.2" cy="325.45" r="1.98"/><circle class="prefix__st894" cx="394.62" cy="325.45" r="1.98"/><circle class="prefix__st894" cx="416.05" cy="325.45" r="1.98"/><circle class="prefix__st894" cx="437.47" cy="325.45" r="1.98"/><circle class="prefix__st894" cx="458.9" cy="325.45" r="1.98"/><circle class="prefix__st894" cx="480.32" cy="325.45" r="1.98"/><circle class="prefix__st894" cx="501.75" cy="325.45" r="1.98"/><circle class="prefix__st894" cx="523.17" cy="325.45" r="1.98"/><circle class="prefix__st894" cx="544.6" cy="325.45" r="1.98"/><circle class="prefix__st894" cx="566.02" cy="325.45" r="1.98"/><circle class="prefix__st894" cx="587.44" cy="325.45" r="1.98"/><circle class="prefix__st894" cx="8.98" cy="346.08" r="1.98"/><circle class="prefix__st894" cx="30.41" cy="346.08" r="1.98"/><circle class="prefix__st894" cx="51.83" cy="346.08" r="1.98"/><circle class="prefix__st894" cx="73.26" cy="346.08" r="1.98"/><circle class="prefix__st894" cx="94.68" cy="346.08" r="1.98"/><circle class="prefix__st894" cx="116.11" cy="346.08" r="1.98"/><circle class="prefix__st894" cx="137.53" cy="346.08" r="1.98"/><circle class="prefix__st894" cx="158.95" cy="346.08" r="1.98"/><circle class="prefix__st894" cx="180.38" cy="346.08" r="1.98"/><circle class="prefix__st894" cx="201.8" cy="346.08" r="1.98"/><circle class="prefix__st894" cx="223.23" cy="346.08" r="1.98"/><circle class="prefix__st894" cx="244.65" cy="346.08" r="1.98"/><circle class="prefix__st894" cx="266.08" cy="346.08" r="1.98"/><circle class="prefix__st894" cx="287.5" cy="346.08" r="1.98"/><circle class="prefix__st894" cx="308.93" cy="346.08" r="1.98"/><circle class="prefix__st894" cx="330.35" cy="346.08" r="1.98"/><circle class="prefix__st894" cx="351.78" cy="346.08" r="1.98"/><circle class="prefix__st894" cx="373.2" cy="346.08" r="1.98"/><circle class="prefix__st894" cx="394.62" cy="346.08" r="1.98"/><circle class="prefix__st894" cx="416.05" cy="346.08" r="1.98"/><circle class="prefix__st894" cx="437.47" cy="346.08" r="1.98"/><circle class="prefix__st894" cx="458.9" cy="346.08" r="1.98"/><circle class="prefix__st894" cx="480.32" cy="346.08" r="1.98"/><circle class="prefix__st894" cx="501.75" cy="346.08" r="1.98"/><circle class="prefix__st894" cx="523.17" cy="346.08" r="1.98"/><circle class="prefix__st894" cx="544.6" cy="346.08" r="1.98"/><circle class="prefix__st894" cx="566.02" cy="346.08" r="1.98"/><circle class="prefix__st894" cx="587.44" cy="346.08" r="1.98"/><circle class="prefix__st894" cx="8.98" cy="366.71" r="1.98"/><circle class="prefix__st894" cx="30.41" cy="366.71" r="1.98"/><circle class="prefix__st894" cx="51.83" cy="366.71" r="1.98"/><circle class="prefix__st894" cx="73.26" cy="366.71" r="1.98"/><circle class="prefix__st894" cx="94.68" cy="366.71" r="1.98"/><circle class="prefix__st894" cx="116.11" cy="366.71" r="1.98"/><circle class="prefix__st894" cx="137.53" cy="366.71" r="1.98"/><circle class="prefix__st894" cx="158.95" cy="366.71" r="1.98"/><circle class="prefix__st894" cx="180.38" cy="366.71" r="1.98"/><circle class="prefix__st894" cx="201.8" cy="366.71" r="1.98"/><circle class="prefix__st894" cx="223.23" cy="366.71" r="1.98"/><circle class="prefix__st894" cx="244.65" cy="366.71" r="1.98"/><circle class="prefix__st894" cx="266.08" cy="366.71" r="1.98"/><circle class="prefix__st894" cx="287.5" cy="366.71" r="1.98"/><circle class="prefix__st894" cx="308.93" cy="366.71" r="1.98"/><circle class="prefix__st894" cx="330.35" cy="366.71" r="1.98"/><circle class="prefix__st894" cx="351.78" cy="366.71" r="1.98"/><circle class="prefix__st894" cx="373.2" cy="366.71" r="1.98"/><circle class="prefix__st894" cx="394.62" cy="366.71" r="1.98"/><circle class="prefix__st894" cx="416.05" cy="366.71" r="1.98"/><circle class="prefix__st894" cx="437.47" cy="366.71" r="1.98"/><circle class="prefix__st894" cx="458.9" cy="366.71" r="1.98"/><circle class="prefix__st894" cx="480.32" cy="366.71" r="1.98"/><circle class="prefix__st894" cx="501.75" cy="366.71" r="1.98"/><circle class="prefix__st894" cx="523.17" cy="366.71" r="1.98"/><circle class="prefix__st894" cx="544.6" cy="366.71" r="1.98"/><circle class="prefix__st894" cx="566.02" cy="366.71" r="1.98"/><circle class="prefix__st894" cx="587.44" cy="366.71" r="1.98"/><circle class="prefix__st894" cx="8.98" cy="387.34" r="1.98"/><circle class="prefix__st894" cx="30.41" cy="387.34" r="1.98"/><circle class="prefix__st894" cx="51.83" cy="387.34" r="1.98"/><circle class="prefix__st894" cx="73.26" cy="387.34" r="1.98"/><circle class="prefix__st894" cx="94.68" cy="387.34" r="1.98"/><circle class="prefix__st894" cx="116.11" cy="387.34" r="1.98"/><circle class="prefix__st894" cx="137.53" cy="387.34" r="1.98"/><circle class="prefix__st894" cx="158.95" cy="387.34" r="1.98"/><circle class="prefix__st894" cx="180.38" cy="387.34" r="1.98"/><circle class="prefix__st894" cx="201.8" cy="387.34" r="1.98"/><circle class="prefix__st894" cx="223.23" cy="387.34" r="1.98"/><circle class="prefix__st894" cx="244.65" cy="387.34" r="1.98"/><circle class="prefix__st894" cx="266.08" cy="387.34" r="1.98"/><circle class="prefix__st894" cx="287.5" cy="387.34" r="1.98"/><circle class="prefix__st894" cx="308.93" cy="387.34" r="1.98"/><circle class="prefix__st894" cx="330.35" cy="387.34" r="1.98"/><circle class="prefix__st894" cx="351.78" cy="387.34" r="1.98"/><circle class="prefix__st894" cx="373.2" cy="387.34" r="1.98"/><circle class="prefix__st894" cx="394.62" cy="387.34" r="1.98"/><circle class="prefix__st894" cx="416.05" cy="387.34" r="1.98"/><circle class="prefix__st894" cx="437.47" cy="387.34" r="1.98"/><circle class="prefix__st894" cx="458.9" cy="387.34" r="1.98"/><circle class="prefix__st894" cx="480.32" cy="387.34" r="1.98"/><circle class="prefix__st894" cx="501.75" cy="387.34" r="1.98"/><circle class="prefix__st894" cx="523.17" cy="387.34" r="1.98"/><circle class="prefix__st894" cx="544.6" cy="387.34" r="1.98"/><circle class="prefix__st894" cx="566.02" cy="387.34" r="1.98"/><circle class="prefix__st894" cx="587.44" cy="387.34" r="1.98"/></g></svg>