<svg xmlns="http://www.w3.org/2000/svg" xmlns:xlink="http://www.w3.org/1999/xlink" viewBox="0 0 234 102"><defs><style>.cls-1{fill:url(#未命名的渐变_2);}.cls-2{fill:url(#未命名的渐变_10);}.cls-3{fill:url(#未命名的渐变_14);}.cls-4{fill:#fff;}.cls-5{fill:#61ccb2;opacity:0.8;}.cls-6{font-size:40.8px;fill:#43404d;font-family:AlibabaPuHuiTi-Medium, Alibaba PuHuiTi;font-weight:500;}</style><linearGradient id="未命名的渐变_2" x1="8.58" y1="96.7" x2="16.73" y2="96.7" gradientUnits="userSpaceOnUse"><stop offset="0" stop-color="#08a5f8"/><stop offset="1" stop-color="#0575d8"/></linearGradient><linearGradient id="未命名的渐变_10" x1="1125.13" y1="-260.54" x2="1152.34" y2="-221.69" gradientTransform="matrix(0.98, -0.17, 0.17, 0.98, -1030.08, 497.19)" gradientUnits="userSpaceOnUse"><stop offset="0.25" stop-color="#0061ce"/><stop offset="0.75" stop-color="#08a5f8"/></linearGradient><linearGradient id="未命名的渐变_14" x1="22.38" y1="34.08" x2="52.23" y2="63.93" gradientUnits="userSpaceOnUse"><stop offset="0" stop-color="#089eff"/><stop offset="1" stop-color="#0575d8"/></linearGradient></defs><g id="底板"><circle class="cls-1" cx="12.66" cy="96.7" r="4.08"/><path class="cls-2" d="M14,89.41c8.82-9.47,27.58-23.82,55.82-16.12a2.7,2.7,0,0,0,3-1.26L91.41,40.09a2.71,2.71,0,0,0-1.81-4C75,33.14,21,26.68,9.58,87.18A2.58,2.58,0,0,0,14,89.41Z"/><path class="cls-3" d="M14.12,88.45c5.05-11.92,17.76-31.81,46.93-34.24A2.7,2.7,0,0,0,63.48,52L70,15.63a2.72,2.72,0,0,0-3.08-3.17C52.16,14.72-.78,27.12,9.19,87.87A2.58,2.58,0,0,0,14.12,88.45Z"/><path class="cls-4" d="M11.31,90.49a2.56,2.56,0,0,1-.39,0A3,3,0,0,1,8.29,88c-3.24-19.74-.15-36.27,9.19-49.13C31.72,19.21,56.42,13.54,66.38,12a3.11,3.11,0,0,1,2.74.91A3.15,3.15,0,0,1,70,15.71l-6.5,36.36a3.14,3.14,0,0,1-2.83,2.59C31.62,57.07,19,77,14.09,88.63h0A3,3,0,0,1,11.31,90.49ZM66.87,12.88a2,2,0,0,0-.35,0C56.67,14.42,32.25,20,18.21,39.36,9,52,6,68.31,9.18,87.8a2.13,2.13,0,0,0,4.07.47h0c5-11.83,17.82-32.06,47.31-34.51a2.25,2.25,0,0,0,2-1.85l6.5-36.36a2.23,2.23,0,0,0-.61-2A2.2,2.2,0,0,0,66.87,12.88Z"/><path class="cls-4" d="M10.6,90.46a3,3,0,0,1-2.73-1.79C-.37,70.45-1.66,53.68,4,38.85,12.71,16.22,35.1,4.35,44.33.3a3.09,3.09,0,0,1,2.88.17,3.14,3.14,0,0,1,1.55,2.47l3.13,36.79A3.17,3.17,0,0,1,49.82,43C22.42,52.82,15.39,75.3,13.65,87.83a3,3,0,0,1-2.59,2.6A3.55,3.55,0,0,1,10.6,90.46ZM45.6.93a2.3,2.3,0,0,0-.91.2c-9.12,4-31.25,15.73-39.81,38C-.72,53.77.56,70.3,8.69,88.3a2.09,2.09,0,0,0,2.24,1.23,2.12,2.12,0,0,0,1.82-1.83C14.52,75,21.66,52.12,49.51,42.12A2.25,2.25,0,0,0,51,39.81L47.85,3a2.23,2.23,0,0,0-1.1-1.76A2.27,2.27,0,0,0,45.6.93Z"/><path class="cls-5" d="M13.65,87.77C15.44,75,22.57,52.44,50.12,42.55a2.71,2.71,0,0,0,1.77-2.78L48.76,3A2.72,2.72,0,0,0,45,.71c-13.65,6-61.57,31.67-36.23,87.78A2.59,2.59,0,0,0,13.65,87.77Z"/><text class="cls-6" transform="translate(101.61 69.71)">ZBsign</text></g></svg>