<svg xmlns="http://www.w3.org/2000/svg" viewBox="0 0 234 102"><style>.prefix__st40{fill:#fff}.prefix__st141{fill:#43404d}</style><g id="prefix__底板"><linearGradient id="prefix__SVGID_1_" gradientUnits="userSpaceOnUse" x1="8.753" y1="96.698" x2="16.908" y2="96.698"><stop offset="0" stop-color="#08a5f8"/><stop offset="1" stop-color="#0575d8"/></linearGradient><circle cx="12.83" cy="96.7" r="4.08" fill="url(#prefix__SVGID_1_)"/><linearGradient id="prefix__SVGID_3_" gradientUnits="userSpaceOnUse" x1="1125.298" y1="-260.514" x2="1152.507" y2="-221.657" gradientTransform="rotate(-10.003 2326.612 6137.325)"><stop offset=".248" stop-color="#0061ce"/><stop offset=".746" stop-color="#08a5f8"/></linearGradient><path d="M14.19 89.41C23 79.94 41.76 65.59 70 73.29c1.18.32 2.43-.2 3.04-1.26l18.54-31.94c.94-1.61.02-3.66-1.81-4.03-14.63-2.92-68.61-9.37-80.02 51.12-.48 2.55 2.67 4.13 4.44 2.23z" fill="url(#prefix__SVGID_3_)"/><linearGradient id="prefix__SVGID_5_" gradientUnits="userSpaceOnUse" x1="22.558" y1="34.079" x2="52.406" y2="63.927"><stop offset="0" stop-color="#089eff"/><stop offset="1" stop-color="#0575d8"/></linearGradient><path d="M14.3 88.45c5.04-11.92 17.76-31.81 46.93-34.24 1.22-.1 2.21-1.02 2.43-2.23l6.5-36.35c.33-1.83-1.24-3.45-3.08-3.17C52.33 14.72-.6 27.12 9.36 87.87c.42 2.56 3.93 2.97 4.94.58z" fill="url(#prefix__SVGID_5_)"/><path class="prefix__st40" d="M11.48 90.49c-.13 0-.26-.01-.39-.02-1.37-.16-2.41-1.15-2.63-2.52-3.24-19.74-.14-36.26 9.19-49.12 14.24-19.61 38.94-25.28 48.9-26.81 1.02-.16 2.02.18 2.74.92.72.74 1.03 1.75.85 2.78l-6.5 36.35a3.164 3.164 0 01-2.84 2.6c-29 2.4-41.61 22.31-46.54 33.96-.49 1.16-1.56 1.86-2.78 1.86zm55.56-77.61c-.12 0-.23.01-.35.03-9.85 1.51-34.26 7.11-48.3 26.45C9.2 52.01 6.16 68.31 9.35 87.8c.19 1.16 1.11 1.68 1.84 1.77.73.09 1.76-.2 2.23-1.29 5.01-11.84 17.82-32.06 47.31-34.51a2.25 2.25 0 002.02-1.85l6.5-36.35a2.26 2.26 0 00-.61-1.99c-.43-.46-1-.7-1.6-.7z"/><path class="prefix__st40" d="M10.77 90.46c-1.18 0-2.23-.67-2.73-1.78C-.2 70.45-1.48 53.69 4.21 38.85 12.89 16.22 35.28 4.35 44.5.3c.95-.42 2-.35 2.89.18.89.52 1.45 1.42 1.54 2.46l3.13 36.8c.12 1.43-.73 2.76-2.07 3.24-27.4 9.84-34.43 32.33-36.17 44.85-.19 1.38-1.21 2.4-2.58 2.6-.16.02-.31.03-.47.03zM45.78.93c-.31 0-.62.06-.91.19-9.12 4.01-31.26 15.74-39.82 38.05C-.55 53.77.73 70.3 8.86 88.3c.49 1.07 1.51 1.33 2.24 1.23.73-.11 1.65-.65 1.82-1.82 1.78-12.73 8.92-35.58 36.77-45.58.95-.34 1.56-1.29 1.47-2.31l-3.13-36.8c-.06-.74-.46-1.38-1.1-1.76-.36-.22-.76-.33-1.15-.33z"/><path d="M13.82 87.77c1.79-12.81 8.92-35.33 36.47-45.22 1.15-.41 1.87-1.56 1.77-2.78l-3.13-36.8c-.16-1.86-2.09-3.01-3.79-2.26-13.65 6-61.58 31.67-36.23 87.78 1.07 2.36 4.56 1.85 4.91-.72z" opacity=".8" fill="#61ccb2"/><g><text transform="translate(101.787 69.715)" class="prefix__st141" font-size="40.799" font-family="AlibabaPuHuiTi-Medium">ZBsign</text></g></g><g id="prefix__文字选项"><path class="prefix__st141" d="M183.17 51.38c-.32 0-.64-.12-.88-.34-.35-.32-.49-.81-.38-1.27l.25-1c.41-1.65.8-3.21 1.21-4.77.12-.45.41-.76.62-.98l3.48-3.76c2.57-2.78 5.14-5.56 7.69-8.35.31-.34.8-.78 1.49-.77.73.01 1.27.52 1.75 1.06.7.8 1.53 1.57 2.47 2.28.38.29 1.09.82 1.16 1.64.04.5-.16.99-.59 1.46-2.42 2.59-4.84 5.19-7.25 7.79l-4.09 4.41c-.31.33-.62.55-.95.66-1.52.52-3.04 1.03-4.65 1.57l-.92.31c-.13.04-.27.06-.41.06zm.69-1.12zm-.91-.84zm13.7-17.18l-.01.01c-2.56 2.8-5.13 5.58-7.7 8.36l-3.49 3.78c-.06.06-.15.15-.17.19-.36 1.4-.73 2.88-1.11 4.43 1.49-.5 2.92-.98 4.33-1.47-.01 0 .05-.03.14-.13l4.09-4.41c2.4-2.58 4.79-5.16 7.19-7.73-.06-.05-.14-.12-.25-.2-1.05-.8-1.99-1.66-2.78-2.57-.1-.12-.18-.2-.24-.26zM203.55 32.36c-.12 0-.23-.04-.33-.12l-4.16-3.57a.505.505 0 01-.05-.71c.18-.21.5-.23.71-.05l4.16 3.57c.21.18.23.5.05.71-.1.11-.24.17-.38.17zM206.22 30.96c-.12 0-.23-.04-.33-.12l-5.65-4.95a.505.505 0 01-.05-.71c.18-.21.5-.23.71-.05l5.65 4.95c.21.18.23.5.05.71-.1.12-.24.17-.38.17z"/></g></svg>
