<svg class="prefix__icon" viewBox="0 0 1024 1024" xmlns="http://www.w3.org/2000/svg" width="200" height="200"><path fill="#43404d" d="M809.924 253.048L496.94 72.282c-41.562-23.913-99.388-8.493-123.362 33.13L12.168 731.437A90.534 90.534 0 0045.297 854.92l191.488 109.869 262.445-1.085 343.823-587.233a90.473 90.473 0 00-33.13-123.423zM464.594 903.59l-211.907.843L75.294 802.696a30.178 30.178 0 01-11.023-41.201l165.647-286.961 363.038 209.618L464.595 903.59zM790.89 346.172L623.375 632.29l-363.34-209.8 165.648-286.96a30.298 30.298 0 0141.14-11.084l312.983 180.706a30.118 30.118 0 0111.083 41.02zM1024 903.53v60.236H602.353v-60.236H1024z"/></svg>