<svg xmlns="http://www.w3.org/2000/svg" viewBox="0 0 133 102"><style>.prefix__st0{display:none}.prefix__st919{fill:#474747}</style><g id="prefix__底板"><path class="prefix__st919" d="M114 88.74c0 3.97-4.97 5.24-9.21 5.23-32.06-.08-64.12-.04-96.19-.05-6.55 0-8.59-1.99-8.59-8.48C0 59.74 0 34.03.01 8.32.01 1.94 1.97.07 8.43.07c10.03 0 20.05.07 30.08-.04 3.12-.04 5.53.97 7.66 3.21 3.15 3.31 6.31 6.62 9.73 9.64 1.27 1.12 3.25 1.99 4.91 2.01 14.79.15 29.58.19 44.37.03 4.25-.05 7.35 1.07 8.83 5.29C114 43.05 114 65.9 114 88.74zm-57.16.73c16.19 0 32.38.01 48.57 0 3.59 0 3.96-.36 3.96-3.92.01-20.76.01-41.52 0-62.27 0-3.7-.16-3.85-3.87-3.85-14.9-.01-29.8-.05-44.69.03-3.19.02-5.75-.89-7.96-3.23-3.06-3.25-6.38-6.26-9.42-9.54-1.58-1.69-3.27-2.23-5.52-2.21-9.83.1-19.66.04-29.5.04-3.88 0-3.93.02-3.93 4.04-.01 25.62-.01 51.25 0 76.87 0 3.78.3 4.04 4.09 4.04 16.09.01 32.18.01 48.27 0z"/><path class="prefix__st919" d="M45.87 72.64c-.54 0-1.08-.17-1.55-.5a2.625 2.625 0 01-1.07-2.59l1.86-11.13-8.12-7.84c-.73-.71-.99-1.75-.68-2.72.31-.97 1.13-1.67 2.14-1.82l11.16-1.67 4.95-10.14c.45-.91 1.36-1.49 2.37-1.49h.01c1.01 0 1.92.56 2.38 1.47l5.04 10.1 11.18 1.57c1.01.14 1.83.83 2.15 1.8s.07 2.01-.66 2.72l-8.05 7.91 1.96 11.12c.18 1-.22 2-1.05 2.6-.82.6-1.89.68-2.79.21l-10.01-5.21-9.97 5.3c-.4.21-.83.31-1.25.31zm23.14-4.08zM42.04 49.68l6.51 6.29c.63.61.92 1.48.77 2.34l-1.49 8.93 8-4.24c.77-.41 1.7-.41 2.48-.01l8.02 4.17-1.57-8.91c-.15-.86.13-1.74.75-2.35l6.46-6.35L63 48.29c-.86-.12-1.61-.66-2.01-1.44l-4.04-8.1-3.97 8.13c-.38.79-1.13 1.33-1.99 1.46l-8.95 1.34zm14.35 16.99zM39.06 50.13zm24.52-5.94z"/></g></svg>