<svg xmlns="http://www.w3.org/2000/svg" viewBox="0 0 133 102"><style>.prefix__st0{display:none}.prefix__st919{fill:#474747}</style><g id="prefix__底板"><path class="prefix__st919" d="M114 89.03c0 4.97-4.97 5.24-9.21 5.23-32.06-.08-64.12-.04-96.19-.05-6.55 0-8.59-1.99-8.59-8.48C0 60.02 0 34.31.01 8.6.01 2.22 1.97.35 8.43.35c10.03 0 20.05.07 30.08-.04 3.12-.04 5.53.97 7.66 3.21 3.15 3.31 6.31 6.62 9.73 9.64 1.27 1.12 3.25 1.99 4.91 2.01 14.79.15 29.58.19 44.37.03 4.25-.05 7.35 1.07 8.83 5.29-.01 22.84-.01 45.69-.01 68.54zm-57.04.73c16.19 0 32.38-.04 48.57.04 2.78.01 3.9-.89 3.89-3.78-.08-20.86-.08-41.71 0-62.57.01-2.81-.82-3.82-3.75-3.79-14.9.13-29.8 0-44.69.1-3.43.02-6.1-1.03-8.43-3.53-3.11-3.34-6.35-6.58-9.73-9.65-1.05-.95-2.73-1.67-4.13-1.69-10.13-.15-20.27.04-30.39-.16-3.13-.06-3.87 1.09-3.86 3.93.06 25.73.03 51.45.04 77.17 0 3.62.33 3.92 3.91 3.92 16.19.01 32.38.01 48.57.01z"/><path class="prefix__st919" d="M54.57 49.86c0-3.96.01-7.51 0-11.06-.01-1.77.09-3.73 2.37-3.68 2.11.05 2.1 1.96 2.09 3.61-.02 3.55-.01 7.1-.01 11.13 4.11 0 7.94-.1 11.76.07 1.01.05 2.11.82 2.9 1.54.28.25-.02 1.71-.47 2.04-.71.52-1.77.74-2.7.77-3.66.08-7.32.03-11.49.03V65.4c0 1.68.24 3.76-2.21 3.7-2.31-.06-2.25-2.06-2.24-3.8.01-3.54 0-7.08 0-10.99H43.56c-1.72 0-3.78.1-3.71-2.26.07-2.28 2.12-2.2 3.84-2.2 3.47.02 6.93.01 10.88.01z"/></g></svg>