<svg xmlns="http://www.w3.org/2000/svg" viewBox="0 0 111 102"><style>.prefix__st0{display:none}.prefix__st929{fill:none;stroke:#474747;stroke-width:5;stroke-linecap:round;stroke-linejoin:round;stroke-miterlimit:10}</style><g id="prefix__底板"><path d="M10.16 89.13c-.77.26-1.52-.44-1.32-1.22 1.76-7.05 3.37-13.59 5.07-20.1.21-.8.94-1.5 1.54-2.14 12.92-14.01 25.9-27.97 38.76-42.03 2.2-2.41 3.56-1.97 6.1.95 2.73 3.14 5.83 5.95 9.15 8.46 2.69 2.03 3.63 3.39 1.53 5.64C57.77 52.81 44.63 67.02 31.44 81.2c-.52.56-1.18 1.13-1.88 1.38-6.28 2.16-12.59 4.26-19.4 6.55z" fill="none" stroke="#474747" stroke-width="5" stroke-miterlimit="10"/><path class="prefix__st929" d="M2.51 99.49h104.88M66.36 12.18l14.5 12.44M70.49 2.51l19.69 17.24"/></g></svg>