<svg xmlns="http://www.w3.org/2000/svg" viewBox="0 0 27 27">
    <path fill="#43404d" class="prefix__st152" d="M0 14.85c0-2.84-.01-5.69 0-8.53 0-1.66.9-2.59 2.55-2.6 5.1-.01 10.2-.01 15.29 0 1.65 0 2.55.93 2.55 2.6.01 5.69.01 11.38 0 17.07 0 1.66-.9 2.59-2.55 2.6-5.1.01-10.2.01-15.29 0C.9 25.98 0 25.05 0 23.39c-.01-2.85 0-5.69 0-8.54zm1.83.01v8.24c0 .91.13 1.04 1.01 1.04 4.92 0 9.85-.01 14.77.01.7 0 .97-.21.97-.93-.02-5.54-.01-11.08-.01-16.62 0-.89-.13-1.02-1.04-1.02H2.91c-.99 0-1.08.1-1.08 1.12v8.16z"/>
    <path fill="#43404d" class="prefix__st152" d="M24.11 11.02v8.31c0 .25.01.5-.03.74-.08.5-.38.81-.9.8-.53-.01-.81-.32-.88-.83-.03-.24-.02-.49-.02-.74 0-5.14-.01-10.29 0-15.43 0-2.33.1-2.01-2.05-2.01-4.55-.01-9.11 0-13.66 0-.25 0-.57.07-.72-.05-.3-.23-.69-.58-.69-.88 0-.29.42-.62.71-.86.15-.12.43-.06.65-.06 4.97 0 9.95 0 14.92-.01 1.05 0 1.93.3 2.39 1.29.19.4.26.9.26 1.36.03 2.78.02 5.58.02 8.37zM10.21 15.08c-1.46 0-2.91.01-4.37 0-.78 0-1.19-.33-1.2-.91 0-.58.42-.94 1.18-.94 2.91-.01 5.83-.01 8.74 0 .75 0 1.19.36 1.2.92.01.59-.43.92-1.25.93h-4.3z"/>
    <path fill="#43404d" class="prefix__st152" d="M10.2 10.45c-1.43 0-2.87.01-4.3 0-.83 0-1.27-.34-1.27-.93 0-.58.47-.95 1.26-.95 2.87-.01 5.73-.01 8.6 0 .82 0 1.33.41 1.26 1.01-.08.68-.57.86-1.17.86-1.46.01-2.92.01-4.38.01zM8.33 17.82h2.59c.62 0 1.06.26 1.11.93.04.55-.4.91-1.1.92-1.73.01-3.45.01-5.18 0-.72 0-1.14-.35-1.11-.91.04-.67.48-.93 1.1-.94h2.59z"/></svg>