<?xml version="1.0" standalone="no"?><!DOCTYPE svg PUBLIC "-//W3C//DTD SVG 1.1//EN" "http://www.w3.org/Graphics/SVG/1.1/DTD/svg11.dtd"><svg t="1676599492924" class="icon" viewBox="0 0 1024 1024" version="1.1" xmlns="http://www.w3.org/2000/svg" p-id="2781" xmlns:xlink="http://www.w3.org/1999/xlink" width="200" height="200"><path d="M742.4 245.76H281.6c-28.16 0-51.2 23.04-51.2 51.2v460.8c0 28.16 23.04 51.2 51.2 51.2h265.216c-12.288-24.576-19.456-52.736-19.456-81.92 0-101.888 82.432-184.32 184.32-184.32 29.696 0 57.344 6.656 81.92 19.456V296.96c0-28.16-23.04-51.2-51.2-51.2z m-186.88 231.424l-114.176 139.264-21.504-20.992v-0.512 0.512l-21.504 20.992v-41.984l133.12-85.504-147.456 71.68-38.4-35.84v-4.608l209.92-48.128v5.12zM701.44 384H322.56c-8.704 0-15.36-6.656-15.36-15.36s6.656-15.36 15.36-15.36h378.88c8.704 0 15.36 6.656 15.36 15.36s-6.656 15.36-15.36 15.36z" fill="#5da5f8" opacity=".2" p-id="2782"></path><path d="M102.4 896a409.6 51.2 0 1 0 819.2 0 409.6 51.2 0 1 0-819.2 0Z" fill="#5da5f8" opacity=".1" p-id="2783"></path><path d="M884.736 765.952c0 8.704 6.656 15.36 15.36 15.36s15.36-6.656 15.36-15.36-6.656-15.36-15.36-15.36-15.36 7.168-15.36 15.36zM926.72 832c-19.456 5.12-23.552 9.216-28.16 28.16-5.12-19.456-9.216-23.552-28.16-28.16 18.944-5.12 23.552-9.216 28.16-28.16 4.608 18.944 8.704 23.552 28.16 28.16zM161.28 205.312c-25.088 6.656-30.208 11.776-36.864 36.864-6.656-25.088-11.776-30.208-36.864-36.864 25.088-6.656 30.208-12.288 36.864-36.864 6.144 25.088 11.776 30.208 36.864 36.864zM908.8 204.288c-15.36 4.096-18.432 7.168-22.528 22.528-4.096-15.36-7.168-18.432-22.528-22.528 15.36-4.096 18.432-7.168 22.528-22.528 3.584 15.36 7.168 18.432 22.528 22.528zM898.048 140.8c-39.936 10.24-48.128 18.944-58.88 58.88-10.24-39.936-18.944-48.128-58.88-58.88 39.936-10.24 48.128-18.944 58.88-58.88 10.24 39.424 18.944 48.128 58.88 58.88zM711.68 875.52c-81.92 0-148.48-66.56-148.48-148.48s66.56-148.48 148.48-148.48 148.48 66.56 148.48 148.48-66.56 148.48-148.48 148.48z m0-266.24c-65.024 0-117.76 52.736-117.76 117.76s52.736 117.76 117.76 117.76 117.76-52.736 117.76-117.76-52.736-117.76-117.76-117.76z" fill="#5da5f8" opacity=".5" p-id="2784"></path><path d="M783.36 742.4h-71.68c-8.704 0-15.36-6.656-15.36-15.36v-71.68c0-8.704 6.656-15.36 15.36-15.36s15.36 6.656 15.36 15.36v56.32h56.32c8.704 0 15.36 6.656 15.36 15.36s-6.656 15.36-15.36 15.36z" fill="#5da5f8" opacity=".5" p-id="2785"></path><path d="M529.92 875.52H281.6c-65.024 0-117.76-52.736-117.76-117.76V296.96c0-65.024 52.736-117.76 117.76-117.76h460.8c65.024 0 117.76 52.736 117.76 117.76v248.32c0 8.704-6.656 15.36-15.36 15.36s-15.36-6.656-15.36-15.36V296.96c0-48.128-38.912-87.04-87.04-87.04H281.6c-48.128 0-87.04 38.912-87.04 87.04v460.8c0 48.128 38.912 87.04 87.04 87.04h248.32c8.704 0 15.36 6.656 15.36 15.36s-6.656 15.36-15.36 15.36z" fill="#5da5f8" opacity=".5" p-id="2786"></path></svg>