<svg  viewBox="0 0 1124 1124" xmlns="http://www.w3.org/2000/svg" width="200" height="200">
<path fill="#43404d"  d="M384 469.333H85.333A85.333 85.333 0 010 384V85.333A85.333 85.333 0 0185.333 0H384a85.333 85.333 0 0185.333 85.333V384A85.333 85.333 0 01384 469.333zm-298.667-384V384H384V85.333zM384 1024H85.333A85.333 85.333 0 010 938.667V640a85.333 85.333 0 0185.333-85.333H384A85.333 85.333 0 01469.333 640v298.667A85.333 85.333 0 01384 1024zM85.333 640v298.667H384V640zM938.667 469.333H640A85.333 85.333 0 01554.667 384V85.333A85.333 85.333 0 01640 0h213.333a42.667 42.667 0 010 85.333H640V384h298.667V170.667a42.667 42.667 0 0185.333 0V384a85.333 85.333 0 01-85.333 85.333zM938.667 1024H640a85.333 85.333 0 01-85.333-85.333V640A85.333 85.333 0 01640 554.667h298.667A85.333 85.333 0 011024 640v298.667A85.333 85.333 0 01938.667 1024zM640 640v298.667h298.667V640z"/></svg>